<?xml version="1.0" encoding="UTF-8"?>
<svg version="1.1" xmlns="http://www.w3.org/2000/svg" width="1024" height="1024">
<path d="M0 0 C337.92 0 675.84 0 1024 0 C1024 337.92 1024 675.84 1024 1024 C686.08 1024 348.16 1024 0 1024 C0 686.08 0 348.16 0 0 Z " fill="#F5F5F5" transform="translate(0,0)"/>
<path d="M0 0 C0.88855682 -0.00067474 1.77711365 -0.00134949 2.69259644 -0.00204468 C16.93304156 0.01509261 30.77482374 0.68648657 44.8125 3.25 C45.71500488 3.4056543 46.61750977 3.56130859 47.54736328 3.72167969 C97.46272422 12.54114568 142.23581479 36.51866609 178.8125 71.25 C179.34665527 71.75547363 179.88081055 72.26094727 180.43115234 72.78173828 C188.17359708 80.16064475 195.07139696 87.8892212 201.46972656 96.45849609 C202.81457029 98.25276214 204.1827424 100.02718437 205.5546875 101.80078125 C233.12481738 137.87092815 246.95323798 180.70290197 252.8125 225.25 C252.9163501 225.9814624 253.0202002 226.7129248 253.12719727 227.46655273 C260.31853123 282.82882043 243.64529787 346.16224564 210.8125 391.25 C210.09449219 392.24 209.37648438 393.23 208.63671875 394.25 C168.7457937 448.26465498 113.48132545 485.81520027 46.8125 497.25 C45.07419922 497.56904297 45.07419922 497.56904297 43.30078125 497.89453125 C33.24929845 499.68346353 23.24786018 500.40605417 13.046875 500.453125 C12.05157776 500.45882507 11.05628052 500.46452515 10.03082275 500.47039795 C7.93331948 500.47978064 5.83580192 500.48635487 3.73828125 500.49023438 C0.61169885 500.49984871 -2.5141987 500.53089999 -5.640625 500.5625 C-23.80128274 500.65866678 -41.7857815 499.09276343 -59.4375 494.625 C-60.45215332 494.37339111 -61.46680664 494.12178223 -62.51220703 493.86254883 C-94.2837124 485.72204024 -122.98917789 473.00425841 -149.1875 453.25 C-149.75533203 452.82638184 -150.32316406 452.40276367 -150.90820312 451.96630859 C-160.61111633 444.6945932 -169.46843173 436.66509146 -178.1875 428.25 C-179.12851562 427.35023438 -180.06953125 426.45046875 -181.0390625 425.5234375 C-186.91254639 419.79542689 -192.12293947 413.69817758 -197.1875 407.25 C-197.97898437 406.26386719 -198.77046875 405.27773438 -199.5859375 404.26171875 C-216.88532726 382.35097746 -230.27248361 357.70931147 -239.1875 331.25 C-239.59838867 330.05576416 -239.59838867 330.05576416 -240.01757812 328.83740234 C-247.08360082 308.01817523 -251.28720985 285.80578485 -251.390625 263.80078125 C-251.39632507 262.82626511 -251.40202515 261.85174896 -251.40789795 260.84770203 C-251.41728908 258.7913011 -251.4238583 256.73488552 -251.42773438 254.6784668 C-251.4373341 251.61543491 -251.4683705 248.5531064 -251.5 245.49023438 C-251.60263811 226.68066394 -249.75910673 208.27684632 -244.9375 190.0625 C-244.63303955 188.88671387 -244.3285791 187.71092773 -244.01489258 186.49951172 C-233.87169021 148.19815297 -215.59407188 113.77751846 -189.1875 84.25 C-188.35992187 83.3115625 -187.53234375 82.373125 -186.6796875 81.40625 C-145.17908278 34.70048469 -84.55119542 5.61009214 -22.43408203 0.4309082 C-14.96269667 0.0145827 -7.48122455 0.0051135 0 0 Z " fill="#1F2123" transform="translate(511.1875,121.75)"/>
<path d="M0 0 C4.06786266 3.59510037 8.04931472 7.27681204 12 11 C12.7321875 11.68964844 13.464375 12.37929687 14.21875 13.08984375 C53.49943271 51.20145853 77.11513321 108.76198689 78.16796875 163.12109375 C78.38056308 192.23737298 74.97292736 220.49504747 65 248 C64.70754395 248.80743652 64.41508789 249.61487305 64.11376953 250.44677734 C56.44870184 271.24268625 43.48915415 304.61398578 24.12084961 317.22338867 C22 318 22 318 20.20751953 317.37597656 C19.60536621 316.96831055 19.00321289 316.56064453 18.3828125 316.140625 C17.35945801 315.46386719 17.35945801 315.46386719 16.31542969 314.7734375 C15.59258789 314.27070312 14.86974609 313.76796875 14.125 313.25 C13.3712207 312.74210937 12.61744141 312.23421875 11.84082031 311.7109375 C9.54840932 310.15754648 7.27331007 308.58117103 5 307 C3.74225304 306.14052909 2.48444524 305.28114718 1.2265625 304.421875 C-31.17599575 282.01938565 -31.17599575 282.01938565 -34 267 C-34.63829053 258.31815141 -34.3931782 249.5545517 -33.49609375 240.90234375 C-29.70666004 201.62467271 -38.62024749 170.25761994 -53.2902298 134.09380341 C-55.42934368 128.81352707 -57.55232085 123.52671651 -59.67797852 118.24101257 C-60.22407262 116.8833246 -60.7703989 115.52572998 -61.31695557 114.16822815 C-66.70483441 100.78550011 -71.98356999 87.36182509 -77.23629761 73.92547607 C-86.57452386 50.03111291 -86.57452386 50.03111291 -96.12420654 26.22076416 C-96.69469894 24.81486955 -97.26196337 23.40765937 -97.82550049 21.9989624 C-100.58549879 15.11101114 -103.41636363 8.78080441 -107.80078125 2.76733398 C-109 1 -109 1 -110 -2 C-111.81918817 -3.12107486 -111.81918817 -3.12107486 -114 -4 C-115.01513672 -4.52980469 -115.01513672 -4.52980469 -116.05078125 -5.0703125 C-124.24122582 -8.88969079 -133.30839961 -9.62930281 -142.04296875 -7.12890625 C-143.69972723 -6.460819 -145.33991988 -5.74812151 -146.94921875 -4.97265625 C-150.02929357 -3.51182076 -151.89248491 -2.6295284 -155.21875 -3.7421875 C-155.9715625 -4.11601562 -156.724375 -4.48984375 -157.5 -4.875 C-165.54354147 -8.81413161 -175.05723497 -9.54009685 -183.7734375 -7.28125 C-199.38120456 -0.67591513 -203.70401828 15.93621702 -209.625 30.5 C-216.55124012 47.62770343 -223.24498658 64.85037398 -229.97094727 82.05737305 C-234.95575453 94.79554342 -239.99364532 107.50942774 -245.12852287 120.18790245 C-246.0212781 122.39310355 -246.91256966 124.59889038 -247.80335999 126.80488586 C-248.39339605 128.26584107 -248.98343814 129.72679384 -249.57348633 131.18774414 C-249.86394868 131.90702245 -250.15441103 132.62630075 -250.45367527 133.36737537 C-251.88516239 136.90954244 -253.32127377 140.44970152 -254.76766968 143.98580933 C-267.1454019 174.24351164 -267.1454019 174.24351164 -271.1328125 206.46875 C-271.13424759 207.78836731 -271.13424759 207.78836731 -271.13571167 209.13464355 C-271.13638822 210.98348055 -271.13457078 212.83231999 -271.13037109 214.68115234 C-271.1250154 217.49191687 -271.13033401 220.30252163 -271.13671875 223.11328125 C-271.13605788 224.91927118 -271.13477652 226.72526102 -271.1328125 228.53125 C-271.13584885 229.77690735 -271.13584885 229.77690735 -271.13894653 231.04772949 C-271.11880757 236.12326316 -270.68979067 240.97200778 -270 246 C-269.07175947 258.99408712 -269.0877259 270.56295293 -277.875 280.9375 C-292.34220623 295.85166057 -309.63726824 307.73124664 -327 319 C-337.7756119 308.54803722 -345.5625254 295.93100277 -353 283 C-353.6501709 281.87464844 -353.6501709 281.87464844 -354.31347656 280.7265625 C-369.21727528 254.60254231 -377.50220608 225.77773592 -381 196 C-381.09498779 195.21560547 -381.18997559 194.43121094 -381.2878418 193.62304688 C-387.85044366 134.86880159 -368.15403721 75.79988599 -332.3671875 29.5625 C-319.22360844 13.41114266 -304.01560169 -1.02463548 -287 -13 C-286.41041504 -13.42893555 -285.82083008 -13.85787109 -285.21337891 -14.29980469 C-266.07713043 -28.22003072 -244.46692892 -37.87480568 -222 -45 C-220.63077393 -45.44230957 -220.63077393 -45.44230957 -219.23388672 -45.89355469 C-144.76921436 -69.51458052 -58.81736766 -50.80065328 0 0 Z " fill="#F5F5F5" transform="translate(664,201)"/>
<path d="M0 0 C8.13157895 5.26315789 8.13157895 5.26315789 10 9 C10.09156105 10.36846741 10.12193944 11.74129747 10.12025452 13.11282349 C10.12231651 14.40431305 10.12231651 14.40431305 10.12442017 15.72189331 C10.12082489 16.66847809 10.11722961 17.61506287 10.11352539 18.59033203 C10.11367142 19.58548828 10.11381744 20.58064453 10.1139679 21.60595703 C10.11326931 24.90659743 10.10547944 28.20718192 10.09765625 31.5078125 C10.09579188 33.79181894 10.09436807 36.07582578 10.09336853 38.35983276 C10.08954487 44.38011778 10.07971586 50.40037879 10.06866455 56.4206543 C10.05844718 62.56038081 10.05387021 68.70011119 10.04882812 74.83984375 C10.03809348 86.89323973 10.02101885 98.94661787 10 111 C5.25 109.125 5.25 109.125 3 108 C-6.05726292 107.14783817 -13.50189846 107.54935054 -21 113 C-29.79984886 120.50463301 -31.80552888 132.46016448 -34.171875 143.23046875 C-34.60641816 145.15565607 -35.04096863 147.08084176 -35.47586632 149.00594902 C-35.93019807 151.02349097 -36.38069279 153.04185367 -36.83001709 155.06051636 C-38.36530966 161.95603659 -39.92776128 168.84541572 -41.4921875 175.734375 C-41.64476643 176.4073657 -41.79734535 177.08035641 -41.95454788 177.77374077 C-44.6764065 189.76570232 -47.60870968 201.68786832 -50.86621094 213.5456543 C-51.1552832 214.61211182 -51.44435547 215.67856934 -51.7421875 216.77734375 C-52.11126221 218.09593384 -52.11126221 218.09593384 -52.48779297 219.44116211 C-53.31618474 223.57956731 -53.33624414 226.99126758 -52 231 C-50.61135566 231.30556226 -49.21318736 231.56800808 -47.8125 231.8125 C-46.64654297 232.03873047 -46.64654297 232.03873047 -45.45703125 232.26953125 C-42.54653403 231.95025572 -41.23918288 230.99599118 -39.24360657 228.89146423 C-36.38975989 224.55090423 -35.64664246 219.17728514 -34.51171875 214.1796875 C-34.05511871 212.26587532 -34.05511871 212.26587532 -33.58929443 210.31340027 C-32.93843164 207.58396366 -32.29902048 204.85219641 -31.66867065 202.11795044 C-30.68838006 197.8662441 -29.68065315 193.62132178 -28.67016602 189.37670898 C-25.82590058 177.39278334 -23.0525755 165.39519141 -20.453125 153.35546875 C-20.18270134 152.11679047 -20.18270134 152.11679047 -19.90681458 150.85308838 C-19.11238675 147.21224705 -18.33731807 143.57040433 -17.61010742 139.91552734 C-16.05464751 132.62765517 -14.53598427 128.10499489 -9 123 C-6.13391871 121.56695936 -4.18699217 121.69355845 -1 122 C4.47169201 124.68001242 7.67095348 128.45568573 10 134 C10.70434479 138.39509041 10.66350813 142.7234423 10.61523438 147.16699219 C10.62078339 148.47227371 10.6263324 149.77755524 10.63204956 151.12239075 C10.64624098 154.68747952 10.62928195 158.25179141 10.60576439 161.81680584 C10.58553139 165.57238538 10.59154225 169.32793645 10.59387207 173.08355713 C10.59381855 179.40169919 10.57411335 185.71954177 10.54199219 192.03759766 C10.50529348 199.29017066 10.49629095 206.54234896 10.5032897 213.7950027 C10.50965517 220.8183976 10.49871783 227.84166027 10.47932434 234.86502838 C10.47125503 237.8293983 10.46842118 240.79369961 10.47001648 243.75807953 C10.47225409 278.84051422 6.73005602 303.28421636 -18.5 328.8125 C-23.22241278 333.47922395 -28.17796093 337.76055381 -33.3828125 341.88671875 C-36.03267619 344.0263848 -38.54923636 346.26454711 -41.0625 348.5625 C-45.06186839 352.20230372 -49.18391178 355.61746885 -53.4296875 358.96484375 C-56.16747235 361.13260349 -58.86633573 363.34323387 -61.5625 365.5625 C-62.47902344 366.30113281 -63.39554687 367.03976562 -64.33984375 367.80078125 C-66.06349972 369.22577143 -67.74743616 370.70079811 -69.37890625 372.23046875 C-70.12011719 372.89691406 -70.86132812 373.56335938 -71.625 374.25 C-72.25664062 374.85328125 -72.88828125 375.4565625 -73.5390625 376.078125 C-77.72083055 377.64462859 -81.06375316 375.73427938 -85 374 C-88.59184248 372.28794849 -92.08204849 370.42743116 -95.5625 368.5 C-96.52486572 367.96882568 -97.48723145 367.43765137 -98.47875977 366.89038086 C-113.0150806 358.74747802 -125.68620562 349.18730648 -138 338 C-138.59989746 337.45649902 -139.19979492 336.91299805 -139.81787109 336.35302734 C-143.23065476 333.25532723 -146.6236872 330.13739309 -150 327 C-145.94149775 322.65275056 -141.47418311 319.29916544 -136.625 315.875 C-135.01144646 314.72173504 -133.39816951 313.568083 -131.78515625 312.4140625 C-130.98094238 311.84075195 -130.17672852 311.26744141 -129.34814453 310.67675781 C-99.98286 290.67004638 -99.98286 290.67004638 -84 260 C-83.7243675 256.80704725 -83.71632311 253.64071314 -83.75 250.4375 C-83.75386719 249.52057373 -83.75773437 248.60364746 -83.76171875 247.65893555 C-83.84128184 241.16404544 -84.32671706 234.76965451 -85 228.3125 C-88.4286066 194.76350892 -81.31856676 169.40784978 -68.91482544 138.66516113 C-66.76696206 133.34021651 -64.63008283 128.01086822 -62.4922924 122.68187332 C-61.708234 120.72769631 -60.92378611 118.77367597 -60.13929749 116.81967163 C-53.60597598 100.54248258 -47.11567105 84.24815454 -40.6322937 67.95101929 C-39.26374243 64.51122928 -37.89386388 61.07197281 -36.5227356 57.63320923 C-34.88931112 53.53648763 -33.25784423 49.43899313 -31.62838554 45.34069252 C-31.00755975 43.77943849 -30.38629472 42.21835905 -29.76457405 40.65746117 C-26.04474677 31.31224827 -22.3425369 21.9643466 -19.18592834 12.40960693 C-17.30025535 6.96292722 -14.64686101 2.60204745 -9.625 -0.4375 C-5.89724579 -1.23630447 -3.70629251 -1.05011621 0 0 Z " fill="#FDCB42" transform="translate(494,209)"/>
<path d="M0 0 C7.41270819 4.04329538 9.57993111 14.30271117 12.46875 21.79296875 C12.78523499 22.60779221 13.10171997 23.42261566 13.42779541 24.26213074 C14.10307852 26.00089519 14.77747655 27.74000361 15.4510498 29.47943115 C17.24849032 34.11987328 19.05363531 38.7573134 20.859375 43.39453125 C21.21896301 44.31810425 21.57855103 45.24167725 21.94903564 46.1932373 C24.838413 53.60526958 27.77916808 60.99519921 30.75 68.375 C37.11686809 84.20667516 43.33229503 100.09747112 49.54980469 115.98828125 C53.35815086 125.72032166 57.16935775 135.45076835 61.03515625 145.16015625 C61.63488379 146.66950036 62.23457591 148.17885854 62.83422852 149.68823242 C63.89842357 152.36633741 64.96863588 155.04191503 66.04272461 157.71606445 C70.99740218 170.18461532 75.16886059 181.91682801 75.1328125 195.44140625 C75.13376923 196.24553452 75.13472595 197.04966278 75.13571167 197.87815857 C75.13638988 199.57673216 75.13456071 201.27530839 75.13037109 202.97387695 C75.12506708 205.53017249 75.13030273 208.08628836 75.13671875 210.64257812 C75.13995724 218.82449764 74.9608053 226.90496079 74.24023438 235.0612793 C72.54125456 254.13316864 72.54125456 254.13316864 78 272 C78.474375 272.89203125 78.94875 273.7840625 79.4375 274.703125 C87.09133946 287.87656022 98.78950366 296.43217044 111 305 C112.76191759 306.25371823 114.52085838 307.51152487 116.27954102 308.76977539 C117.41838752 309.58411448 118.55818649 310.39712334 119.69897461 311.20874023 C126.52026595 316.06472286 133.25878078 321.03377968 140 326 C136.51115236 330.26212942 133.04289753 334.02415882 128.6875 337.4375 C125.30014929 340.13105599 122.03401108 342.85591099 118.875 345.8125 C108.05858888 355.41656381 95.94232135 362.83806845 83.25 369.6875 C82.11892822 370.29996582 80.98785645 370.91243164 79.82250977 371.54345703 C70.20640764 376.63625008 70.20640764 376.63625008 66 377 C63.69050195 375.42905703 61.83541792 373.94500042 59.8125 372.0625 C58.64938834 371.02887697 57.48531872 369.99633094 56.3203125 368.96484375 C55.7521582 368.45421387 55.18400391 367.94358398 54.59863281 367.41748047 C52.52092413 365.57521159 50.36815044 363.84364823 48.1875 362.125 C41.07559058 356.47696821 34.01546041 350.76739481 27 345 C26.08613525 344.24928223 26.08613525 344.24928223 25.15380859 343.48339844 C3.81183281 325.85076302 -15.79179377 306.99334355 -19.78419685 278.30080986 C-20.28558287 272.9552257 -20.18466766 267.56982735 -20.20874023 262.20532227 C-20.21829192 260.80841852 -20.22818363 259.41151705 -20.23838806 258.01461792 C-20.26960178 253.44857536 -20.29001084 248.88251547 -20.30859375 244.31640625 C-20.31189107 243.53773406 -20.31518839 242.75906187 -20.31858563 241.95679355 C-20.34934238 234.60618686 -20.37602947 227.25557574 -20.39300442 219.90492344 C-20.41492617 210.52538728 -20.45696921 201.14642215 -20.52644199 191.76711422 C-20.5737262 185.15798884 -20.59794317 178.5490174 -20.6052013 171.9397282 C-20.6101478 167.99784202 -20.62513384 164.05660181 -20.6649456 160.11490059 C-20.70190836 156.40705093 -20.71019113 152.7002138 -20.69693947 148.9922142 C-20.69701878 146.99223014 -20.72680138 144.99231542 -20.75762939 142.99256897 C-20.70298395 136.20438422 -20.20183301 131.77529692 -15.67862034 126.55345058 C-12.62985835 123.73202576 -10.82007658 122.12149283 -6.625 121.5 C-2.98889677 122.00153148 -0.93477908 122.74598209 1.73876953 125.29370117 C7.09074321 132.53430204 7.85651462 144.58851551 9.875 153.3125 C10.23338468 154.85107191 10.592112 156.38956404 10.95117188 157.92797852 C11.4849317 160.21506044 12.01849166 162.50218617 12.55084229 164.78959656 C14.02481406 171.12153586 15.52864243 177.4460501 17.06591797 183.76293945 C18.24547668 188.66215703 19.34588577 193.57398296 20.39758301 198.50196838 C21.08233347 201.70172249 21.78108989 204.89836339 22.48022461 208.09500122 C22.82380523 209.68474746 23.16068051 211.27595927 23.49047852 212.86862183 C23.95598944 215.11432156 24.44445783 217.35395744 24.9375 219.59375 C25.07079712 220.26680679 25.20409424 220.93986359 25.34143066 221.63331604 C26.42284114 226.39499712 28.22116523 228.94409779 32 232 C35.68455227 232.6767545 37.24316508 232.49791771 40.375 230.4375 C42.81733328 226.77400008 42.40914102 223.28068638 41.6421814 219.00540161 C41.13156687 216.78338136 40.56606788 214.58235019 39.98046875 212.37890625 C39.76607147 211.54188675 39.55167419 210.70486725 39.33078003 209.84248352 C38.86613157 208.02944243 38.39801091 206.21728838 37.92678833 204.40594482 C36.65347759 199.5085473 35.40652141 194.60452254 34.1640625 189.69921875 C33.90418045 188.67358826 33.6442984 187.64795776 33.37654114 186.59124756 C31.46950807 179.00623943 29.68434861 171.39822243 27.9609375 163.76953125 C27.71622208 162.68710648 27.47150665 161.6046817 27.21937561 160.48945618 C26.03523501 155.23478134 24.86455487 149.97736987 23.70581055 144.71704102 C23.27408291 142.78788801 22.84220558 140.85876849 22.41015625 138.9296875 C22.13254959 137.64158928 22.13254959 137.64158928 21.84933472 136.32746887 C19.7566335 127.04453549 17.12397329 116.90649396 8.69140625 111.52734375 C-0.93697804 106.51052233 -9.80879856 106.98677232 -20 110 C-20.07373078 105.85157658 -20.14642801 101.70313571 -20.21875 97.5546875 C-20.24139923 96.2577446 -20.26404846 94.9608017 -20.28738403 93.6245575 C-20.41078854 86.47893302 -20.52464258 79.33327723 -20.62255859 72.18725586 C-20.65250901 70.01890368 -20.68246476 67.85055157 -20.71242142 65.68219948 C-20.73230275 64.237712 -20.75201393 62.79322218 -20.77155685 61.34873009 C-20.88063469 53.37793334 -21.02544548 45.41123213 -21.29168701 37.44378662 C-21.40554291 33.93652153 -21.48726993 30.42901231 -21.56176758 26.92071533 C-21.60352635 25.36334706 -21.66132715 23.8063165 -21.73608398 22.25018311 C-22.27988905 10.78286644 -22.27988905 10.78286644 -19.09277344 6.34326172 C-13.14056282 0.86815531 -8.14180594 -2.17764869 0 0 Z " fill="#FDCB42" transform="translate(540,209)"/>
<path d="M0 0 C0.88855682 -0.00067474 1.77711365 -0.00134949 2.69259644 -0.00204468 C16.93304156 0.01509261 30.77482374 0.68648657 44.8125 3.25 C45.71500488 3.4056543 46.61750977 3.56130859 47.54736328 3.72167969 C97.46272422 12.54114568 142.23581479 36.51866609 178.8125 71.25 C179.34665527 71.75547363 179.88081055 72.26094727 180.43115234 72.78173828 C188.17359708 80.16064475 195.07139696 87.8892212 201.46972656 96.45849609 C202.81457029 98.25276214 204.1827424 100.02718437 205.5546875 101.80078125 C233.12481738 137.87092815 246.95323798 180.70290197 252.8125 225.25 C252.9163501 225.9814624 253.0202002 226.7129248 253.12719727 227.46655273 C261.20917852 289.68544171 239.24003837 354.17374343 201.8125 403.25 C200.62343795 404.83216059 199.4357137 406.41532851 198.25 408 C197.4375 409.08333333 196.625 410.16666667 195.8125 411.25 C189.08744651 407.00127462 182.40874684 402.69635898 175.8125 398.25 C176.625 397.16666667 177.4375 396.08333333 178.25 395 C178.80042969 394.26265625 179.35085938 393.5253125 179.91796875 392.765625 C181.21989988 391.03687521 182.5358395 389.31861428 183.86328125 387.609375 C204.15301429 361.22911818 217.479755 331.67661431 224.8125 299.25 C224.97975586 298.5173291 225.14701172 297.7846582 225.31933594 297.02978516 C237.76039675 241.09852144 226.89604797 180.28400057 196.8125 131.6875 C176.12797262 99.46585227 149.15706499 73.14086027 115.8125 54.25 C114.92425537 53.73808105 114.92425537 53.73808105 114.01806641 53.21582031 C63.21014827 24.08315943 -2.36601348 16.83441551 -58.75 32.0625 C-62.24692184 33.07176388 -65.7186993 34.1484214 -69.1875 35.25 C-70.41243164 35.62632568 -70.41243164 35.62632568 -71.66210938 36.01025391 C-100.44231892 44.93946896 -126.42765514 59.6142947 -149.1875 79.25 C-149.82719727 79.79688477 -150.46689453 80.34376953 -151.12597656 80.90722656 C-163.3941438 91.49400034 -174.90033211 102.93653896 -184.1875 116.25 C-184.64398926 116.88921387 -185.10047852 117.52842773 -185.57080078 118.18701172 C-220.12205095 166.77074696 -235.09837433 227.31548175 -225.68359375 286.31347656 C-219.00415429 325.85102471 -203.50315147 362.02084693 -178.1875 393.25 C-175.1875 396.99669604 -175.1875 396.99669604 -175.1875 399.25 C-177.58298977 401.38538186 -180.29574525 403.1207223 -182.9375 404.9375 C-183.66710937 405.46150391 -184.39671875 405.98550781 -185.1484375 406.52539062 C-185.85742188 407.01587891 -186.56640625 407.50636719 -187.296875 408.01171875 C-187.94624023 408.46506592 -188.59560547 408.91841309 -189.26464844 409.38549805 C-191.1875 410.25 -191.1875 410.25 -193.31396484 410.00024414 C-210.49781594 403.11909032 -225.57266918 365.03945944 -232.43017578 349.41943359 C-234.92593023 343.4444237 -237.12043062 337.38495593 -239.1875 331.25 C-239.59838867 330.05576416 -239.59838867 330.05576416 -240.01757812 328.83740234 C-247.08360082 308.01817523 -251.28720985 285.80578485 -251.390625 263.80078125 C-251.39632507 262.82626511 -251.40202515 261.85174896 -251.40789795 260.84770203 C-251.41728908 258.7913011 -251.4238583 256.73488552 -251.42773438 254.6784668 C-251.4373341 251.61543491 -251.4683705 248.5531064 -251.5 245.49023438 C-251.60263811 226.68066394 -249.75910673 208.27684632 -244.9375 190.0625 C-244.63303955 188.88671387 -244.3285791 187.71092773 -244.01489258 186.49951172 C-233.87169021 148.19815297 -215.59407188 113.77751846 -189.1875 84.25 C-188.35992187 83.3115625 -187.53234375 82.373125 -186.6796875 81.40625 C-145.17908278 34.70048469 -84.55119542 5.61009214 -22.43408203 0.4309082 C-14.96269667 0.0145827 -7.48122455 0.0051135 0 0 Z " fill="#18B0AC" transform="translate(511.1875,121.75)"/>
<path d="M0 0 C7.26 0 14.52 0 22 0 C24.16618429 7.87614402 26.33117204 15.75261407 28.49413776 23.62964249 C29.4988654 27.28845123 30.50408759 30.9471225 31.51049805 34.60546875 C32.48430527 38.14537571 33.45673762 41.68565786 34.42827415 45.22618866 C34.79652584 46.56728928 35.16524734 47.908261 35.53447914 49.2490921 C37.79899758 57.47393143 39.97364798 65.71311144 42 74 C45.61680904 61.67069473 49.20386154 49.33366741 52.7109375 36.97265625 C53.01332336 35.9080014 53.31570923 34.84334656 53.6272583 33.74642944 C54.86267334 29.39555013 56.09743762 25.04449606 57.32763672 20.69213867 C58.24411933 17.45146557 59.16466618 14.21197071 60.0859375 10.97265625 C60.36504974 9.98129166 60.64416199 8.98992706 60.93173218 7.96852112 C61.18935333 7.0650444 61.44697449 6.16156769 61.71240234 5.23071289 C61.93777679 4.43484268 62.16315125 3.63897247 62.39535522 2.81898499 C63 1 63 1 64 0 C65.34267413 -0.08631874 66.68974322 -0.10706473 68.03515625 -0.09765625 C68.84404297 -0.09443359 69.65292969 -0.09121094 70.48632812 -0.08789062 C71.33646484 -0.07951172 72.18660156 -0.07113281 73.0625 -0.0625 C73.91650391 -0.05798828 74.77050781 -0.05347656 75.65039062 -0.04882812 C77.76695663 -0.03700373 79.88348685 -0.01906769 82 0 C88.79656457 20.43755683 94.568402 41.17898151 100.40396118 61.90646362 C100.79466726 63.27878595 101.19298848 64.64896809 101.59970093 66.01663208 C102.62285638 69.471143 103.21911484 72.38460512 103 76 C103.66 76 104.32 76 105 76 C105.08628662 74.8354126 105.17257324 73.6708252 105.26147461 72.47094727 C106.06260924 65.32060095 108.01987702 58.41479797 109.81640625 51.46484375 C110.19665064 49.97568542 110.57635681 48.48638956 110.95555115 46.9969635 C111.94808925 43.10437863 112.94786026 39.21368802 113.94921875 35.32336426 C114.97252754 31.34235901 115.98888863 27.35958123 117.00585938 23.37695312 C118.99716327 15.58289458 120.99676284 7.79099999 123 0 C130.59 0 138.18 0 146 0 C139.32903264 24.77145046 132.61042012 49.52900946 125.75515747 74.25018311 C125.08460888 76.66832746 124.41474889 79.08666287 123.74557495 81.50518799 C122.80658512 84.89731537 121.86473246 88.28863339 120.921875 91.6796875 C120.64015945 92.69830872 120.35844391 93.71692993 120.06819153 94.76641846 C119.80946762 95.69412048 119.55074371 96.62182251 119.28417969 97.57763672 C119.05913757 98.38772186 118.83409546 99.19780701 118.60223389 100.03244019 C118 102 118 102 117 104 C109.08 104 101.16 104 93 104 C88.51031433 90.32686636 84.36422539 76.58078488 80.38928223 62.75067139 C79.83808681 60.83353185 79.28510777 58.91690423 78.73034668 57.00079346 C77.94085358 54.27035013 77.15876553 51.53789592 76.37890625 48.8046875 C76.13860184 47.97632385 75.89829742 47.14796021 75.65071106 46.29449463 C75.43283432 45.52425964 75.21495758 44.75402466 74.99047852 43.96044922 C74.79841324 43.28956268 74.60634796 42.61867615 74.40846252 41.92745972 C74 40 74 40 74 36 C73.34 36 72.68 36 72 36 C71.91298828 37.03842041 71.82597656 38.07684082 71.73632812 39.14672852 C70.93720439 45.48565083 69.00368309 51.53430016 67.21875 57.65234375 C66.84099823 58.96118407 66.46368619 60.27015137 66.08679199 61.57923889 C65.30037739 64.30596154 64.50993275 67.03147071 63.71630859 69.75610352 C62.69770375 73.25369911 61.68744137 76.75363698 60.67989349 80.25443172 C59.90356309 82.94968038 59.12386886 85.64394608 58.34303284 88.33789253 C57.78714371 90.25699681 57.23334326 92.17670571 56.67956543 94.09642029 C56.34251587 95.25174759 56.00546631 96.40707489 55.65820312 97.59741211 C55.36143677 98.61919052 55.06467041 99.64096893 54.75891113 100.69371033 C54 103 54 103 53 104 C51.21928754 104.08726223 49.4351686 104.10699041 47.65234375 104.09765625 C46.57275391 104.09443359 45.49316406 104.09121094 44.38085938 104.08789062 C43.24455078 104.07951172 42.10824219 104.07113281 40.9375 104.0625 C39.79732422 104.05798828 38.65714844 104.05347656 37.48242188 104.04882812 C34.65489649 104.03699747 31.8274736 104.0205141 29 104 C24.989894 90.00288215 20.99187485 76.00232765 17 62 C16.45759674 60.0977063 16.45759674 60.0977063 15.90423584 58.15698242 C13.76399057 50.64976484 11.62634184 43.14181493 9.49297047 35.63264084 C8.52405913 32.22228914 7.5542658 28.81219419 6.58230591 25.40270996 C5.48422401 21.55055424 4.39036265 17.69721239 3.296875 13.84375 C2.9630632 12.67479187 2.6292514 11.50583374 2.2853241 10.30145264 C1.98330582 9.23453186 1.68128754 8.16761108 1.37011719 7.06835938 C1.10430847 6.13358765 0.83849976 5.19881592 0.56463623 4.23571777 C0 2 0 2 0 0 Z " fill="#1F2121" transform="translate(203,789)"/>
<path d="M0 0 C23 0 23 0 27.8515625 4.29296875 C29.34057617 7.11376953 29.34057617 7.11376953 30.625 10.1875 C31.69391435 12.2943409 32.76559756 14.39977897 33.83984375 16.50390625 C34.35272949 17.58172363 34.86561523 18.65954102 35.39404297 19.77001953 C37.967619 24.94612335 41.07925339 29.75801469 44.1875 34.625 C45.24615794 36.32386093 46.30233511 38.0242715 47.35546875 39.7265625 C48.050354 40.84659668 48.050354 40.84659668 48.75927734 41.98925781 C50.19367671 44.31387669 51.60521978 46.651401 53 49 C57.74939305 42.59932791 61.87108714 35.9342976 65.86450195 29.05102539 C69.49847912 22.80540531 73.25815737 16.64318085 77.0625 10.5 C77.63500488 9.57340576 78.20750977 8.64681152 78.79736328 7.69213867 C82.87109375 1.12890625 82.87109375 1.12890625 84 0 C91.26 0 98.52 0 106 0 C106 34.32 106 68.64 106 104 C99.4 104 92.8 104 86 104 C85.67 82.22 85.34 60.44 85 38 C81.04 44.6 77.08 51.2 73 58 C70.91090932 61.36690633 68.82023455 64.72439096 66.6875 68.0625 C66.19604492 68.83634033 65.70458984 69.61018066 65.19824219 70.4074707 C63.80109632 72.60643482 62.40082638 74.80337948 61 77 C60.23021597 78.21077683 59.46066278 79.42170046 58.69140625 80.6328125 C57.12977924 83.08993991 55.56626021 85.54582468 54 88 C50.90658177 85.11707313 48.71670329 82.20327812 46.53125 78.58984375 C45.87640625 77.51541016 45.2215625 76.44097656 44.546875 75.33398438 C43.87140625 74.21314453 43.1959375 73.09230469 42.5 71.9375 C35.79099948 60.87435815 28.91180047 49.94368408 22 39 C21.67 60.45 21.34 81.9 21 104 C14.07 104 7.14 104 0 104 C0 69.68 0 35.36 0 0 Z " fill="#1F2121" transform="translate(279,659)"/>
<path d="M0 0 C2.45153215 2.23773574 3.91700674 4.46962823 5.5 7.375 C15.46179461 24.16426848 31.00716127 37.44300214 46.35546875 49.1796875 C51.32080084 52.98566463 56.11283854 57.00232208 60.92944336 60.9934082 C65.66982361 64.91721655 70.45305926 68.77095821 75.3125 72.546875 C77 74 77 74 78 76 C56.2594329 81.66165441 34.82647311 87.03323091 12.2421875 87.23828125 C11.34447128 87.2480751 10.44675507 87.25786896 9.52183533 87.26795959 C-9.39014976 87.43198384 -27.51161231 87.39022988 -46 83 C-48.28242265 82.48900486 -50.56498158 81.97861816 -52.84765625 81.46875 C-57.23420121 80.46518168 -61.61537825 79.44476667 -65.984375 78.3671875 C-66.85803711 78.15175293 -67.73169922 77.93631836 -68.63183594 77.71435547 C-70.92337399 77.0231142 -72.89989686 76.13882258 -75 75 C-66.88546999 66.70777955 -57.82904956 59.57255866 -48.5625 52.625 C-41.05355548 46.98000182 -34.21297547 40.83765736 -27.43505859 34.34521484 C-25.60435202 32.62912209 -23.68580319 31.03328187 -21.75 29.4375 C-12.23508661 21.1424473 -5.83401943 11.01619312 0 0 Z " fill="#F5F5F5" transform="translate(511,517)"/>
<path d="M0 0 C1.17767944 0.0014502 1.17767944 0.0014502 2.37915039 0.00292969 C9.57610195 0.21791791 15.48639409 2.22030824 21.3125 6.5625 C23.12890625 8.765625 23.12890625 8.765625 24.3125 10.5625 C24.6425 7.9225 24.9725 5.2825 25.3125 2.5625 C31.5825 2.5625 37.8525 2.5625 44.3125 2.5625 C44.3125 27.3125 44.3125 52.0625 44.3125 77.5625 C38.0425 77.5625 31.7725 77.5625 25.3125 77.5625 C24.8175 73.6025 24.8175 73.6025 24.3125 69.5625 C23.88839844 70.03300781 23.46429687 70.50351562 23.02734375 70.98828125 C16.16884847 78.26883778 9.59204684 80.40337318 -0.375 80.875 C-10.25945085 80.72658482 -18.72356448 76.43122547 -25.6875 69.5625 C-28.08429274 66.73235857 -29.944056 63.83211991 -31.6875 60.5625 C-32.10128906 59.79808594 -32.51507812 59.03367187 -32.94140625 58.24609375 C-37.3064867 48.52732579 -37.32696037 36.12731789 -34.76953125 25.88671875 C-33.60867474 22.93010362 -32.31280964 20.28854844 -30.6875 17.5625 C-30.24148438 16.80710937 -29.79546875 16.05171875 -29.3359375 15.2734375 C-22.75705347 5.46024177 -11.66681574 -0.0349867 0 0 Z " fill="#1F2121" transform="translate(666.6875,685.4375)"/>
<path d="M0 0 C0.63679688 0.37253906 1.27359375 0.74507812 1.9296875 1.12890625 C2.9815625 1.72703125 4.0334375 2.32515625 5.1171875 2.94140625 C13.45852567 9.42911372 17.57921654 16.07749336 20.9296875 26.12890625 C20.9296875 32.39890625 20.9296875 38.66890625 20.9296875 45.12890625 C2.4496875 45.45890625 -16.0303125 45.78890625 -35.0703125 46.12890625 C-30.34765464 53.21289303 -27.44289229 56.45439029 -19.0703125 58.12890625 C-12.29889086 58.94742974 -6.9269846 57.64526158 -1.0703125 54.12890625 C0.64285658 52.57861151 0.64285658 52.57861151 1.9296875 51.12890625 C6.08120088 52.57093101 9.22947195 54.62995005 12.7421875 57.25390625 C13.71800781 57.97835937 14.69382812 58.7028125 15.69921875 59.44921875 C16.43527344 60.00351562 17.17132813 60.5578125 17.9296875 61.12890625 C14.37979267 68.98938766 7.58002198 72.02778489 -0.10546875 75.1484375 C-11.66260065 78.97036123 -24.066217 78.16202948 -35.0703125 73.12890625 C-45.04915384 67.85883067 -52.22662914 59.78995328 -55.75390625 49.046875 C-58.89260682 37.03322798 -57.35163689 25.72432334 -51.3828125 14.94140625 C-40.88418398 -1.51590332 -17.89317985 -8.88467581 0 0 Z " fill="#1E2121" transform="translate(456.0703125,688.87109375)"/>
<path d="M0 0 C8.62490796 7.06959669 13.05238434 14.45953735 15.75 25.25 C15.75 30.53 15.75 35.81 15.75 41.25 C-3.06 41.25 -21.87 41.25 -41.25 41.25 C-35.84683706 50.03162895 -35.84683706 50.03162895 -27.25 54.25 C-19.61912614 54.94892388 -12.76718937 54.61914714 -6.25 50.25 C-5.59 49.26 -4.93 48.27 -4.25 47.25 C-0.09848662 48.69202476 3.04978445 50.7510438 6.5625 53.375 C7.53832031 54.09945312 8.51414062 54.82390625 9.51953125 55.5703125 C10.25558594 56.12460937 10.99164063 56.67890625 11.75 57.25 C8.59718001 64.35149745 1.7915988 68.48365762 -5.25 71.25 C-15.74511005 74.80809829 -28.62106672 74.98705289 -38.859375 70.51171875 C-50.92632717 64.14304955 -57.60891822 56.44978319 -61.8671875 43.3515625 C-63.88227085 32.28916615 -62.47720459 20.36668621 -56.70703125 10.65234375 C-43.58971424 -7.32768574 -18.72793552 -13.13108123 0 0 Z " fill="#202222" transform="translate(412.25,821.75)"/>
<path d="M0 0 C9.19740474 6.49855238 14.92880863 14.80117203 17.6484375 25.6796875 C17.6484375 31.2896875 17.6484375 36.8996875 17.6484375 42.6796875 C-1.1615625 42.6796875 -19.9715625 42.6796875 -39.3515625 42.6796875 C-33.94839956 51.46131645 -33.94839956 51.46131645 -25.3515625 55.6796875 C-14.55696831 56.50032916 -9.37905538 54.69801609 -0.3515625 48.6796875 C4.2684375 51.9796875 8.8884375 55.2796875 13.6484375 58.6796875 C9.86834784 66.23986683 3.82476318 70.06166665 -3.95703125 72.953125 C-15.35261073 76.41083753 -28.71247187 76.2133852 -39.3515625 70.6796875 C-49.82264205 64.9031142 -55.68064853 57.29179231 -59.6015625 46.1171875 C-62.35449823 33.40362977 -60.31156929 21.92862631 -53.6640625 10.9296875 C-41.44930866 -6.18321325 -18.02592346 -10.12086732 0 0 Z " fill="#202222" transform="translate(656.3515625,820.3203125)"/>
<path d="M0 0 C8.181365 3.8875029 13.35461714 9.66674046 16.49267578 18.17260742 C18.00381351 23.61907296 17.68335596 29.20194383 17.6328125 34.80859375 C17.6299826 35.99727554 17.62715271 37.18595734 17.62423706 38.41065979 C17.61308206 42.19054418 17.58798566 45.97018776 17.5625 49.75 C17.55246417 52.31965803 17.54333937 54.88931978 17.53515625 57.45898438 C17.51315797 63.74358174 17.47866001 70.0280001 17.4375 76.3125 C10.8375 76.3125 4.2375 76.3125 -2.5625 76.3125 C-2.5718457 74.86480225 -2.58119141 73.41710449 -2.59082031 71.92553711 C-2.63079201 66.53736986 -2.69657182 61.14976924 -2.77001953 55.76196289 C-2.79818735 53.43326108 -2.81942264 51.1044644 -2.83349609 48.77563477 C-2.85498289 45.42154521 -2.90166509 42.06859123 -2.953125 38.71484375 C-2.95435364 37.67915756 -2.95558228 36.64347137 -2.95684814 35.57640076 C-3.08334563 29.28644571 -3.86675137 25.45349176 -7.5625 20.3125 C-11.48225375 16.63030709 -15.84466852 16.86903003 -20.97265625 17.02734375 C-25.66712803 17.54423129 -27.73439297 19.39238108 -30.8125 22.8125 C-33.24653593 26.28969418 -33.69179295 28.92115909 -33.76782227 33.05932617 C-33.78776749 34.02009567 -33.80771271 34.98086517 -33.82826233 35.9707489 C-33.85333107 37.52243523 -33.85333107 37.52243523 -33.87890625 39.10546875 C-33.89968735 40.16663406 -33.92046844 41.22779938 -33.94187927 42.32112122 C-34.00731238 45.71401437 -34.06623093 49.1069855 -34.125 52.5 C-34.16819114 54.79883622 -34.21180562 57.09766453 -34.25585938 59.39648438 C-34.36298745 65.03507615 -34.46427268 70.67374643 -34.5625 76.3125 C-41.1625 76.3125 -47.7625 76.3125 -54.5625 76.3125 C-54.5625 51.2325 -54.5625 26.1525 -54.5625 0.3125 C-47.9625 0.3125 -41.3625 0.3125 -34.5625 0.3125 C-34.2325 2.6225 -33.9025 4.9325 -33.5625 7.3125 C-33.12679688 6.91417969 -32.69109375 6.51585937 -32.2421875 6.10546875 C-31.64664063 5.57566406 -31.05109375 5.04585937 -30.4375 4.5 C-29.85742188 3.97792969 -29.27734375 3.45585938 -28.6796875 2.91796875 C-20.37004626 -3.38325366 -9.64054755 -3.59874764 0 0 Z " fill="#1F2122" transform="translate(544.5625,687.6875)"/>
<path d="M0 0 C6.14328007 4.73785987 8.90148815 11.24197734 10.1875 18.75 C10.44845272 22.87758421 10.42098523 26.99057641 10.3828125 31.125 C10.3799826 32.2900708 10.37715271 33.4551416 10.37423706 34.65551758 C10.36309807 38.35378562 10.33800479 42.05180592 10.3125 45.75 C10.3024621 48.26692357 10.29333766 50.78385096 10.28515625 53.30078125 C10.26317926 59.45061538 10.22869257 65.60026577 10.1875 71.75 C3.5875 71.75 -3.0125 71.75 -9.8125 71.75 C-9.82708252 70.33259521 -9.84166504 68.91519043 -9.85668945 67.45483398 C-9.91481444 62.17854019 -9.99204705 56.90266681 -10.07495117 51.62670898 C-10.10813367 49.34650514 -10.13618624 47.06622047 -10.15893555 44.78588867 C-10.19260382 41.50144118 -10.24492726 38.21772986 -10.30078125 34.93359375 C-10.30717117 33.91978134 -10.3135611 32.90596893 -10.32014465 31.86143494 C-10.43941352 26.07417944 -11.02357001 21.8589778 -13.8125 16.75 C-17.90528258 12.91301633 -22.04735056 12.393304 -27.4609375 12.47265625 C-31.47028306 12.94551926 -33.58341753 14.29589733 -36.8125 16.75 C-40.54625729 22.23143848 -40.28497257 27.6619205 -40.32421875 34.0546875 C-40.34216995 35.13380402 -40.36012115 36.21292053 -40.37861633 37.32473755 C-40.43262867 40.75811909 -40.4665867 44.19136231 -40.5 47.625 C-40.533181 49.95835254 -40.56767138 52.29168685 -40.60351562 54.625 C-40.68835032 60.33323341 -40.75520534 66.04142642 -40.8125 71.75 C-47.4125 71.75 -54.0125 71.75 -60.8125 71.75 C-60.8125 46.67 -60.8125 21.59 -60.8125 -4.25 C-54.2125 -4.25 -47.6125 -4.25 -40.8125 -4.25 C-40.4825 -1.94 -40.1525 0.37 -39.8125 2.75 C-39.22855469 2.15251953 -39.22855469 2.15251953 -38.6328125 1.54296875 C-27.16854515 -9.31374526 -12.65800503 -8.10002491 0 0 Z " fill="#202323" transform="translate(573.8125,821.25)"/>
<path d="M0 0 C5.30257662 1.6402637 10.77521323 2.59562964 16.21975708 3.64480591 C18.21097797 4.03021801 20.19950978 4.42737523 22.18774414 4.82788086 C31.66017238 6.71404071 40.69509335 8.00266757 50.34423828 8.05273438 C51.24751862 8.05979401 52.15079895 8.06685364 53.08145142 8.0741272 C78.78509531 8.22932546 102.220852 6.61533689 127.20751953 0.25195312 C128.61735107 -0.0959729 128.61735107 -0.0959729 130.05566406 -0.45092773 C131.79960625 -0.90423878 133.53211809 -1.40520262 135.24609375 -1.96118164 C137.50041067 -2.63596407 139.39296583 -3.12650335 141.74658203 -3.15039062 C144.49741187 -1.44614087 146.01665547 -0.26147043 148.12158203 2.03710938 C148.62818359 2.54564453 149.13478516 3.05417969 149.65673828 3.578125 C151.04423418 4.97836692 152.39694889 6.41283776 153.74658203 7.84960938 C154.7434225 8.85275896 155.74146704 9.85475066 156.74658203 10.84960938 C141.69639724 17.46873242 125.84652822 20.91717002 109.74658203 23.84960938 C108.57611328 24.06617188 107.40564453 24.28273438 106.19970703 24.50585938 C96.15652829 26.27512402 86.17116013 27.0057133 75.98095703 27.05273438 C74.48801117 27.06128448 74.48801117 27.06128448 72.96490479 27.07000732 C70.86740151 27.07939002 68.76988395 27.08596424 66.67236328 27.08984375 C63.54578088 27.09945809 60.41988333 27.13050936 57.29345703 27.16210938 C38.92126173 27.25967192 20.83494601 25.61838566 2.99658203 21.03710938 C1.97508057 20.78429199 0.9535791 20.53147461 -0.09887695 20.27099609 C-9.61183496 17.86627203 -18.95512118 14.97490103 -28.25341797 11.84960938 C-22.86942657 -1.6428028 -12.37110395 -4.38495876 0 0 Z " fill="#18B0AC" transform="translate(448.25341796875,595.150390625)"/>
<path d="M0 0 C3.77510219 2.700489 7.14137915 5.59768058 9.61328125 9.57421875 C8.22356366 13.74337153 6.11759866 14.26933596 2.30078125 16.32421875 C1.14964844 16.9584375 -0.00148438 17.59265625 -1.1875 18.24609375 C-4.38671875 19.57421875 -4.38671875 19.57421875 -6.8046875 19.27734375 C-7.32675781 19.0453125 -7.84882812 18.81328125 -8.38671875 18.57421875 C-8.38671875 17.91421875 -8.38671875 17.25421875 -8.38671875 16.57421875 C-9.00546875 16.26484375 -9.62421875 15.95546875 -10.26171875 15.63671875 C-11.63671875 14.94921875 -13.01171875 14.26171875 -14.38671875 13.57421875 C-16.38397295 13.45222737 -18.38577856 13.39874363 -20.38671875 13.38671875 C-21.45921875 13.37253906 -22.53171875 13.35835937 -23.63671875 13.34375 C-26.53124971 13.28836089 -26.53124971 13.28836089 -28.38671875 15.57421875 C-28.55359323 18.15776093 -28.55359323 18.15776093 -28.38671875 20.57421875 C-23.24187465 23.46819356 -18.09968805 25.34369078 -12.44921875 27.01171875 C-3.11670288 29.81168865 4.49217173 32.64052719 9.68359375 41.375 C11.9159214 46.65567423 11.39389161 52.9746047 9.7734375 58.37109375 C6.3606778 65.95500419 1.18326218 70.33010696 -6.44921875 73.44921875 C-17.06355069 76.53435329 -28.72039854 75.3316791 -38.5625 70.5078125 C-43.38061466 67.75849284 -47.35949328 64.25646713 -50.38671875 59.57421875 C-50.74560947 58.24753629 -51.08233162 56.91445655 -51.38671875 55.57421875 C-48.95316205 54.23321825 -46.51536574 52.90127019 -44.07421875 51.57421875 C-43.0387793 51.001875 -43.0387793 51.001875 -41.98242188 50.41796875 C-36.7265625 47.57421875 -36.7265625 47.57421875 -33.38671875 47.57421875 C-31.8515625 49.0703125 -31.8515625 49.0703125 -30.32421875 51.01171875 C-28.21958545 53.73297068 -28.21958545 53.73297068 -25.38671875 55.57421875 C-23.41131995 55.72201837 -21.42992951 55.79540841 -19.44921875 55.82421875 C-18.38832031 55.85 -17.32742188 55.87578125 -16.234375 55.90234375 C-13.39892248 55.80591882 -13.39892248 55.80591882 -11.51953125 54.2578125 C-9.82538898 51.73996658 -10.19003834 49.52442485 -10.38671875 46.57421875 C-10.91136719 46.42726563 -11.43601562 46.2803125 -11.9765625 46.12890625 C-14.79196118 45.31379914 -17.58849509 44.44660613 -20.38671875 43.57421875 C-21.37526855 43.27620361 -21.37526855 43.27620361 -22.38378906 42.97216797 C-32.69265432 39.82577219 -42.38774025 36.77238006 -47.94921875 26.76171875 C-49.06718912 18.61650609 -49.46755522 11.43410181 -44.38671875 4.57421875 C-33.02766658 -8.41185946 -14.16041654 -8.45916864 0 0 Z " fill="#1F2121" transform="translate(799.38671875,820.42578125)"/>
<path d="M0 0 C3.80549176 2.7272691 6.9927436 5.64927165 9.609375 9.57421875 C9.609375 10.23421875 9.609375 10.89421875 9.609375 11.57421875 C7.34292442 12.91552636 5.07177403 14.24738109 2.796875 15.57421875 C2.15427734 15.95578125 1.51167969 16.33734375 0.84960938 16.73046875 C-4.05078125 19.57421875 -4.05078125 19.57421875 -7.390625 19.57421875 C-9.09842473 17.94972632 -10.76613257 16.28201848 -12.390625 14.57421875 C-14.97815656 13.28045297 -16.94021485 13.40589478 -19.828125 13.38671875 C-20.79621094 13.37253906 -21.76429688 13.35835937 -22.76171875 13.34375 C-25.62329227 13.38272424 -25.62329227 13.38272424 -28.390625 15.57421875 C-28.6408407 18.65787746 -28.6408407 18.65787746 -28.390625 21.57421875 C-25.26562314 22.94302122 -22.12472992 23.96222766 -18.84375 24.87109375 C3.43329363 31.05275998 3.43329363 31.05275998 9.609375 40.57421875 C11.6068799 46.56673346 11.79336687 54.0499065 9.7734375 60.0625 C5.76137518 66.99609763 -1.07183356 71.87033289 -8.703125 74.109375 C-20.33646876 76.12153766 -32.34700459 75.04944708 -42.390625 68.57421875 C-47.1956743 64.69430664 -49.64838852 61.57901439 -51.390625 55.57421875 C-48.9570683 54.23321825 -46.51927199 52.90127019 -44.078125 51.57421875 C-43.04268555 51.001875 -43.04268555 51.001875 -41.98632812 50.41796875 C-36.73046875 47.57421875 -36.73046875 47.57421875 -33.390625 47.57421875 C-31.85546875 49.0703125 -31.85546875 49.0703125 -30.328125 51.01171875 C-28.2234917 53.73297068 -28.2234917 53.73297068 -25.390625 55.57421875 C-23.41425086 55.69649801 -21.4332419 55.74971804 -19.453125 55.76171875 C-18.39222656 55.77589844 -17.33132813 55.79007813 -16.23828125 55.8046875 C-13.18784831 55.78986942 -13.18784831 55.78986942 -10.390625 53.57421875 C-10.885625 50.10921875 -10.885625 50.10921875 -11.390625 46.57421875 C-12.04546875 46.35805908 -12.7003125 46.14189941 -13.375 45.91918945 C-16.38391179 44.91914065 -19.38718319 43.90307178 -22.390625 42.88671875 C-23.42058594 42.54705078 -24.45054687 42.20738281 -25.51171875 41.85742188 C-33.63846487 39.08811667 -41.61311807 36.10797967 -46.390625 28.57421875 C-49.04243084 22.60765561 -49.2636624 16.68871158 -47.328125 10.51171875 C-44.4247089 3.60592998 -38.91569639 -0.59326309 -32.28515625 -3.69921875 C-21.65667226 -7.77529714 -9.62014914 -5.73750725 0 0 Z " fill="#1E2121" transform="translate(731.390625,820.42578125)"/>
<path d="M0 0 C0 6.93 0 13.86 0 21 C5.94 21 11.88 21 18 21 C18 26.94 18 32.88 18 39 C12.06 39 6.12 39 0 39 C0.09691814 43.93007276 0.19963418 48.859301 0.31738281 53.78881836 C0.35566993 55.46582634 0.39052331 57.14291638 0.421875 58.82006836 C0.46753179 61.23060432 0.5255241 63.64057557 0.5859375 66.05078125 C0.59748871 66.80087967 0.60903992 67.55097809 0.62094116 68.32380676 C0.72695459 72.06127713 0.87619082 73.81428623 3 77 C6.34613512 77.58687784 6.34613512 77.58687784 10.125 77.6875 C12.39375 77.790625 14.6625 77.89375 17 78 C17 83.94 17 89.88 17 96 C13.83280371 96.08159761 10.66774848 96.14078461 7.5 96.1875 C6.613125 96.21263672 5.72625 96.23777344 4.8125 96.26367188 C-2.40037837 96.34322568 -8.0161334 95.38709328 -13.8125 90.75 C-18.8506864 84.41627996 -19.43035452 78.95980586 -19.29296875 71.12890625 C-19.28872391 70.206577 -19.28447906 69.28424774 -19.28010559 68.33396912 C-19.26341364 65.40983965 -19.22577938 62.48641851 -19.1875 59.5625 C-19.17244089 57.57097355 -19.15875464 55.57943621 -19.14648438 53.58789062 C-19.11354122 48.72499062 -19.06182499 43.8626151 -19 39 C-23.29 39 -27.58 39 -32 39 C-32 33.06 -32 27.12 -32 21 C-27.71 21 -23.42 21 -19 21 C-19 15.39 -19 9.78 -19 4 C-16.6075 3.34 -14.215 2.68 -11.75 2 C-10.62996582 1.68675781 -10.62996582 1.68675781 -9.48730469 1.3671875 C-6.15928812 0.46491727 -3.47672588 0 0 0 Z " fill="#1F2121" transform="translate(604,667)"/>
<path d="M0 0 C6.6 0 13.2 0 20 0 C20 35.97 20 71.94 20 109 C13.4 109 6.8 109 0 109 C0 73.03 0 37.06 0 0 Z " fill="#222424" transform="translate(477,784)"/>
<path d="M0 0 C6.6 0 13.2 0 20 0 C20 35.97 20 71.94 20 109 C13.4 109 6.8 109 0 109 C0 73.03 0 37.06 0 0 Z " fill="#212323" transform="translate(441,784)"/>
<path d="M0 0 C6.6 0 13.2 0 20 0 C20 35.97 20 71.94 20 109 C13.4 109 6.8 109 0 109 C0 73.03 0 37.06 0 0 Z " fill="#1D1F20" transform="translate(727,654)"/>
<path d="M0 0 C4.73418848 3.55572096 7.58789056 8.45117168 9.4375 14 C10.17775094 21.40250944 9.56703867 27.68498241 5.4375 34 C1.66179141 38.23086251 -2.77983227 40.63537457 -8.39453125 41.37109375 C-15.50426657 41.52950201 -20.14929899 40.75943277 -25.5625 36 C-30.40678357 31.02823528 -31.86025294 25.59269216 -32.0625 18.75 C-31.9439978 11.83737148 -30.0493443 7.22963284 -25.5625 2 C-18.89599523 -3.83319167 -7.73898182 -4.34030349 0 0 Z " fill="#F4F4F4" transform="translate(682.5625,706)"/>
<path d="M0 0 C6.6 0 13.2 0 20 0 C20 35.97 20 71.94 20 109 C13.4 109 6.8 109 0 109 C0 73.03 0 37.06 0 0 Z M2 1 C2 35.98 2 70.96 2 107 C7.28 107 12.56 107 18 107 C18 72.02 18 37.04 18 1 C12.72 1 7.44 1 2 1 Z " fill="#0D0F0F" transform="translate(477,784)"/>
<path d="M0 0 C5.39049898 3.97870163 8.29506942 7.28784711 9.625 13.9375 C-2.915 13.9375 -15.455 13.9375 -28.375 13.9375 C-27.04506942 7.28784711 -24.14049898 3.97870163 -18.75 0 C-12.56730453 -1.94640413 -6.18269547 -1.94640413 0 0 Z " fill="#F4F4F3" transform="translate(448.375,705.0625)"/>
<path d="M0 0 C4.72097481 3.34273815 6.63548755 6.48212525 7.79296875 12.26953125 C-4.74703125 12.26953125 -17.28703125 12.26953125 -30.20703125 12.26953125 C-26.54180262 4.939074 -24.71431098 1.82771704 -17.89453125 -2.04296875 C-11.41281797 -3.70108145 -5.8620398 -3.31129194 0 0 Z " fill="#F5F5F4" transform="translate(646.20703125,835.73046875)"/>
<path d="M0 0 C3.72414669 2.53919092 6.01937888 4.93451455 8 9 C8 9.99 8 10.98 8 12 C-4.54 12 -17.08 12 -30 12 C-26.33975373 4.67950745 -24.49978867 1.48672532 -17.625 -2.3125 C-10.94571205 -4.06183732 -6.05258286 -3.19759094 0 0 Z " fill="#F6F6F5" transform="translate(400,836)"/>
<path d="M0 0 C6.6 0 13.2 0 20 0 C20 35.97 20 71.94 20 109 C13.4 109 6.8 109 0 109 C0 73.03 0 37.06 0 0 Z M1 1 C1 35.98 1 70.96 1 107 C6.61 107 12.22 107 18 107 C18 72.02 18 37.04 18 1 C12.39 1 6.78 1 1 1 Z " fill="#0A0B0B" transform="translate(441,784)"/>
<path d="M0 0 C6.6 0 13.2 0 20 0 C20 35.64 20 71.28 20 108 C13.73 108 7.46 108 1 108 C1 107.67 1 107.34 1 107 C6.28 107 11.56 107 17 107 C17 72.68 17 38.36 17 3 C11.72 3 6.44 3 1 3 C0.67 2.01 0.34 1.02 0 0 Z " fill="#323434" transform="translate(727,654)"/>
<path d="M0 0 C6.6 0 13.2 0 20 0 C20 2.31 20 4.62 20 7 C19.67 7 19.34 7 19 7 C19 5.02 19 3.04 19 1 C13.39 1 7.78 1 2 1 C2 25.09 2 49.18 2 74 C7.61 74 13.22 74 19 74 C18.98428955 72.60765137 18.9685791 71.21530273 18.95239258 69.78076172 C18.89799741 64.60357472 18.86361481 59.42641288 18.83520508 54.24902344 C18.82014036 52.01037342 18.79968467 49.77175281 18.77368164 47.53320312 C18.73719717 44.31112398 18.72025017 41.08943589 18.70703125 37.8671875 C18.69154739 36.87008759 18.67606354 35.87298767 18.66011047 34.84567261 C18.65881977 29.48832577 18.9019352 25.5955491 22 21 C22.66 20.67 23.32 20.34 24 20 C23.5359375 21.1446875 23.5359375 21.1446875 23.0625 22.3125 C21.61475537 25.9744423 20.86663976 28.83003608 20.79467773 32.74682617 C20.77473251 33.70759567 20.75478729 34.66836517 20.73423767 35.6582489 C20.70916893 37.20993523 20.70916893 37.20993523 20.68359375 38.79296875 C20.66281265 39.85413406 20.64203156 40.91529938 20.62062073 42.00862122 C20.55518762 45.40151437 20.49626907 48.7944855 20.4375 52.1875 C20.39430886 54.48633622 20.35069438 56.78516453 20.30664062 59.08398438 C20.19951255 64.72257615 20.09822732 70.36124643 20 76 C13.4 76 6.8 76 0 76 C0 50.92 0 25.84 0 0 Z " fill="#0A0B0C" transform="translate(490,688)"/>
<path d="M0 0 C6.6 0 13.2 0 20 0 C20 2.64 20 5.28 20 8 C19.01 8.495 19.01 8.495 18 9 C18 6.69 18 4.38 18 2 C12.39 2 6.78 2 1 2 C1 25.76 1 49.52 1 74 C6.61 74 12.22 74 18 74 C17.98952637 72.73406006 17.97905273 71.46812012 17.96826172 70.16381836 C17.93193862 65.44688772 17.90905478 60.72996936 17.89013672 56.01293945 C17.88010715 53.97515785 17.86648022 51.93739054 17.84912109 49.8996582 C17.82473873 46.9630174 17.81348623 44.02656765 17.8046875 41.08984375 C17.79436493 40.18540024 17.78404236 39.28095673 17.77340698 38.34910583 C17.77249689 33.16574571 18.31033211 28.90822211 20 24 C20.9892063 26.9676189 21.09308174 28.75457815 21.02172852 31.83862305 C20.99158409 33.30980843 20.99158409 33.30980843 20.96083069 34.81071472 C20.92027809 36.39521172 20.92027809 36.39521172 20.87890625 38.01171875 C20.85529526 39.09508011 20.83168427 40.17844147 20.80735779 41.29463196 C20.73070914 44.7590542 20.64668961 48.2232536 20.5625 51.6875 C20.50928054 54.03449426 20.45654014 56.38149943 20.40429688 58.72851562 C20.27509225 64.48581853 20.13927626 70.24293229 20 76 C13.4 76 6.8 76 0 76 C0 50.92 0 25.84 0 0 Z " fill="#040505" transform="translate(513,817)"/>
<path d="M0 0 C2 2 2 2 2.24050903 4.25259399 C2.2338472 5.65824112 2.2338472 5.65824112 2.22705078 7.09228516 C2.22689972 8.15323395 2.22674866 9.21418274 2.22659302 10.30728149 C2.21627045 11.45626923 2.20594788 12.60525696 2.1953125 13.7890625 C2.1924826 14.96262299 2.18965271 16.13618347 2.18673706 17.3453064 C2.17551355 21.10530662 2.15040492 24.86507139 2.125 28.625 C2.11497301 31.1692674 2.10584668 33.71353852 2.09765625 36.2578125 C2.0755671 42.50529949 2.04102236 48.75260979 2 55 C-4.6 55 -11.2 55 -18 55 C-18 38.83 -18 22.66 -18 6 C-17.67 6 -17.34 6 -17 6 C-17 21.51 -17 37.02 -17 53 C-11.39 53 -5.78 53 0 53 C0 35.51 0 18.02 0 0 Z " fill="#0D0E0F" transform="translate(582,838)"/>
<path d="M0 0 C0.33 0 0.66 0 1 0 C1 22.11 1 44.22 1 67 C0.67 67 0.34 67 0 67 C-0.01030746 66.2277005 -0.02061493 65.455401 -0.03123474 64.65969849 C-0.12910994 57.3904686 -0.23161 50.12132579 -0.33933926 42.85223579 C-0.39456319 39.11489964 -0.44798232 35.37755565 -0.49731445 31.64013672 C-0.54496587 28.03503385 -0.59730892 24.43002715 -0.65294075 20.82503891 C-0.67336079 19.44791933 -0.69207447 18.07077338 -0.70907402 16.69360733 C-0.73312547 14.768496 -0.76374251 12.84347005 -0.79467773 10.91845703 C-0.81022202 9.82147491 -0.8257663 8.7244928 -0.84178162 7.5942688 C-0.82896195 5.01546248 -0.82896195 5.01546248 -2 3 C-1.34 2.01 -0.68 1.02 0 0 Z M-3 5 C-2.34 5.33 -1.68 5.66 -1 6 C-1 26.13 -1 46.26 -1 67 C-1.33 67 -1.66 67 -2 67 C-2.33 48.52 -2.66 30.04 -3 11 C-3.99 11 -4.98 11 -6 11 C-4.125 6.125 -4.125 6.125 -3 5 Z " fill="#E7E7E7" transform="translate(364,696)"/>
<path d="M0 0 C0.33 0 0.66 0 1 0 C1.02685095 2.47923801 1.04676547 4.9581884 1.0625 7.4375 C1.07087891 8.14455078 1.07925781 8.85160156 1.08789062 9.58007812 C1.09653588 11.38693559 1.05220011 13.19387603 1 15 C0 16 0 16 -2.20826721 16.12025452 C-3.18311569 16.11803391 -4.15796417 16.11581329 -5.16235352 16.11352539 C-6.26341934 16.11344986 -7.36448517 16.11337433 -8.49891663 16.11329651 C-9.6968132 16.10813522 -10.89470978 16.10297394 -12.12890625 16.09765625 C-13.34827377 16.0962413 -14.5676413 16.09482635 -15.82395935 16.09336853 C-19.7368307 16.08774967 -23.64964581 16.07519396 -27.5625 16.0625 C-30.20768147 16.05748743 -32.85286383 16.0529241 -35.49804688 16.04882812 C-41.99871726 16.03777411 -48.49935461 16.02101764 -55 16 C-53.35 17.98 -51.7 19.96 -50 22 C-50.33 22.66 -50.66 23.32 -51 24 C-51.98475214 22.90081184 -52.96260473 21.7954398 -53.9375 20.6875 C-54.48277344 20.07261719 -55.02804687 19.45773437 -55.58984375 18.82421875 C-57 17 -57 17 -58 14 C-38.86 14 -19.72 14 0 14 C0 9.38 0 4.76 0 0 Z " fill="#FCFCFC" transform="translate(478,720)"/>
<path d="M0 0 C5.94 0 11.88 0 18 0 C18 5.94 18 11.88 18 18 C12.06 18 6.12 18 0 18 C0 17.01 0 16.02 0 15 C4.95 15 9.9 15 15 15 C15 10.71 15 6.42 15 2 C10.05 2 5.1 2 0 2 C0 1.34 0 0.68 0 0 Z " fill="#272829" transform="translate(604,688)"/>
<path d="M0 0 C0.33 0 0.66 0 1 0 C1.01030746 0.61752136 1.02061493 1.23504272 1.03123474 1.87127686 C1.13936746 8.29515018 1.25396011 14.71888516 1.37231445 21.14257812 C1.41564155 23.54033515 1.45731822 25.9381226 1.49731445 28.3359375 C1.55507063 31.78134326 1.61875006 35.22659625 1.68359375 38.671875 C1.70030624 39.74491882 1.71701874 40.81796265 1.73423767 41.92352295 C1.75418289 42.92425842 1.77412811 43.9249939 1.79467773 44.95605469 C1.81799416 46.27509796 1.81799416 46.27509796 1.84178162 47.62078857 C1.94921094 50.30012446 1.94921094 50.30012446 3 54 C-3.6 54 -10.2 54 -17 54 C-17 53.34 -17 52.68 -17 52 C-11.92281793 49.46140896 -5.67646212 51 0 51 C0 34.17 0 17.34 0 0 Z " fill="#2F3131" transform="translate(559,710)"/>
<path d="M0 0 C4.29 0 8.58 0 13 0 C12.67 0.66 12.34 1.32 12 2 C9.03 2 6.06 2 3 2 C3 6.29 3 10.58 3 15 C4.27875 14.979375 5.5575 14.95875 6.875 14.9375 C10.75 14.875 10.75 14.875 13 16 C13 16.66 13 17.32 13 18 C8.71 18 4.42 18 0 18 C0 12.06 0 6.12 0 0 Z " fill="#262727" transform="translate(572,688)"/>
<path d="M0 0 C6.6 0 13.2 0 20 0 C19.67 16.5 19.34 33 19 50 C18.67 50 18.34 50 18 50 C18 34.16 18 18.32 18 2 C13.71 2 9.42 2 5 2 C3.35 1.67 1.7 1.34 0 1 C0 0.67 0 0.34 0 0 Z " fill="#191A1A" transform="translate(727,654)"/>
<path d="M0 0 C0.66 0 1.32 0 2 0 C2.495 1.98 2.495 1.98 3 4 C-9.54 4 -22.08 4 -35 4 C-34.67 3.34 -34.34 2.68 -34 2 C-22.78 1.67 -11.56 1.34 0 1 C0 0.67 0 0.34 0 0 Z " fill="#FDFDFD" transform="translate(455,715)"/>
<path d="M0 0 C3.10367497 -0.14515677 6.20648027 -0.23400853 9.3125 -0.3125 C10.19357422 -0.35439453 11.07464844 -0.39628906 11.98242188 -0.43945312 C14.41994228 -0.48579382 16.60970257 -0.48611344 19 0 C21.10546875 2.51953125 21.10546875 2.51953125 22 5 C22.99 4.34 23.98 3.68 25 3 C23.60667426 6.36720387 22.0210714 7.9859524 19 10 C19 7.36 19 4.72 19 2 C12.4 2 5.8 2 -1 2 C-0.67 1.34 -0.34 0.68 0 0 Z " fill="#FCFCFC" transform="translate(514,815)"/>
<path d="M0 0 C0.33 0 0.66 0 1 0 C1.19645093 3.12450532 1.38063489 6.24961445 1.5625 9.375 C1.61857422 10.26445313 1.67464844 11.15390625 1.73242188 12.0703125 C1.78076172 12.92109375 1.82910156 13.771875 1.87890625 14.6484375 C1.9260376 15.43395996 1.97316895 16.21948242 2.02172852 17.02880859 C2 19 2 19 1 21 C-5.6 21 -12.2 21 -19 21 C-16 18 -16 18 -12.20703125 17.70703125 C-10.74186541 17.72412577 -9.27692919 17.7629994 -7.8125 17.8125 C-3.9453125 17.9053125 -3.9453125 17.9053125 0 18 C0 12.06 0 6.12 0 0 Z " fill="#C6C7C7" transform="translate(621,745)"/>
<path d="M0 0 C0.66 0 1.32 0 2 0 C1.67 2.97 1.34 5.94 1 9 C0.34 9 -0.32 9 -1 9 C-1.103125 9.886875 -1.20625 10.77375 -1.3125 11.6875 C-1.85867617 15.42611438 -2.59236268 19.11648502 -3.375 22.8125 C-3.60960937 23.93269531 -3.84421875 25.05289063 -4.0859375 26.20703125 C-5 29 -5 29 -8 31 C-5.43980534 20.63665886 -2.7837255 10.30570716 0 0 Z " fill="#E8E8E9" transform="translate(347,793)"/>
<path d="M0 0 C5.25842012 1.96894835 9.64157353 4.80037279 14.3125 7.875 C15.14845703 8.40480469 15.98441406 8.93460938 16.84570312 9.48046875 C17.63525391 9.99996094 18.42480469 10.51945313 19.23828125 11.0546875 C19.96055908 11.52374512 20.68283691 11.99280273 21.42700195 12.47607422 C21.94609131 12.97896973 22.46518066 13.48186523 23 14 C23 15.32 23 16.64 23 18 C20.5 20.25 20.5 20.25 18 22 C18.37125 21.2575 18.7425 20.515 19.125 19.75 C20.26344492 17.12083946 20.26344492 17.12083946 19.31298828 15.0144043 C17.7601829 12.63206938 16.25820938 11.54817915 13.8671875 10.01953125 C13.06152344 9.49552734 12.25585938 8.97152344 11.42578125 8.43164062 C10.58402344 7.89732422 9.74226562 7.36300781 8.875 6.8125 C7.20387009 5.73856447 5.53449092 4.66189791 3.8671875 3.58203125 C3.12581543 3.10999268 2.38444336 2.6379541 1.62060547 2.15161133 C1.08580566 1.77157959 0.55100586 1.39154785 0 1 C0 0.67 0 0.34 0 0 Z " fill="#181414" transform="translate(682,517)"/>
<path d="M0 0 C6.27 0 12.54 0 19 0 C19 2.64 19 5.28 19 8 C18.01 8.495 18.01 8.495 17 9 C17 6.69 17 4.38 17 2 C11.72 2 6.44 2 1 2 C0.67 1.34 0.34 0.68 0 0 Z " fill="#090A0B" transform="translate(514,817)"/>
<path d="M0 0 C0.99 0.33 1.98 0.66 3 1 C3.125 8.75 3.125 8.75 2 11 C1.84588894 13.0307477 1.75017547 15.06606421 1.68359375 17.1015625 C1.64169922 18.31328125 1.59980469 19.525 1.55664062 20.7734375 C1.51732422 22.04445313 1.47800781 23.31546875 1.4375 24.625 C1.37272461 26.543125 1.37272461 26.543125 1.30664062 28.5 C1.20030114 31.66655348 1.09827167 34.83318753 1 38 C0.67 38 0.34 38 0 38 C0 25.46 0 12.92 0 0 Z " fill="#2C2D2E" transform="translate(629,400)"/>
<path d="M0 0 C2 1.8125 2 1.8125 4 4 C4 4.99 4 5.98 4 7 C-7.88 6.67 -19.76 6.34 -32 6 C-32 5.67 -32 5.34 -32 5 C-21.11 4.67 -10.22 4.34 1 4 C0.505 2.02 0.505 2.02 0 0 Z " fill="#EDEDEC" transform="translate(404,841)"/>
<path d="M0 0 C0.33 0 0.66 0 1 0 C1 8.58 1 17.16 1 26 C0.01 26 -0.98 26 -2 26 C-1.49354466 17.31482976 -0.97704701 8.64790541 0 0 Z " fill="#D9EFEE" transform="translate(741,358)"/>
<path d="M0 0 C1.31534494 3.65857532 0.65468309 6.08026481 -0.4375 9.75 C-0.72496094 10.73484375 -1.01242188 11.7196875 -1.30859375 12.734375 C-1.53675781 13.48203125 -1.76492187 14.2296875 -2 15 C-4.61973266 12.38026734 -4.70813314 10.64833578 -5 7 C-4.0625 4.625 -4.0625 4.625 -3 3 C-2.67 3.33 -2.34 3.66 -2 4 C-2 3.01 -2 2.02 -2 1 C-1.34 0.67 -0.68 0.34 0 0 Z " fill="#F2F2F2" transform="translate(248,850)"/>
<path d="M0 0 C0.99 0 1.98 0 3 0 C2.67 1.98 2.34 3.96 2 6 C1.34 6 0.68 6 0 6 C0.20625 6.5775 0.4125 7.155 0.625 7.75 C1.09407708 10.56446249 0.40784762 11.57537354 -1 14 C-1.33 14.99 -1.66 15.98 -2 17 C-2.66 17 -3.32 17 -4 17 C-2.68 11.39 -1.36 5.78 0 0 Z " fill="#EAEAEA" transform="translate(329,858)"/>
<path d="M0 0 C0.66 0 1.32 0 2 0 C2.86656998 2.74663704 3.71851786 5.4964243 4.5625 8.25 C4.80935547 9.02730469 5.05621094 9.80460938 5.31054688 10.60546875 C5.65375977 11.73662109 5.65375977 11.73662109 6.00390625 12.890625 C6.21861572 13.58188477 6.4333252 14.27314453 6.65454102 14.98535156 C7.0491764 17.28678704 6.71084423 18.79616682 6 21 C3.48933342 16.48501977 2.20752879 12.17237549 1.3125 7.125 C1.18294922 6.43664062 1.05339844 5.74828125 0.91992188 5.0390625 C0.60525879 3.36085938 0.30148535 1.68062047 0 0 Z " fill="#EAEBEB" transform="translate(284,857)"/>
<path d="M0 0 C0.66 0 1.32 0 2 0 C2.04898438 0.85464844 2.09796875 1.70929688 2.1484375 2.58984375 C2.22320313 3.69457031 2.29796875 4.79929687 2.375 5.9375 C2.44460938 7.03964844 2.51421875 8.14179688 2.5859375 9.27734375 C2.72257813 10.17582031 2.85921875 11.07429688 3 12 C3.66 12.33 4.32 12.66 5 13 C3.35 13.66 1.7 14.32 0 15 C0 10.05 0 5.1 0 0 Z " fill="#F8DF43" transform="translate(520,304)"/>
<path d="M0 0 C2.375 0.3125 2.375 0.3125 5 1 C7.1387261 4.20808915 7.47730962 5.27698497 7 9 C6.01 9.66 5.02 10.32 4 11 C3.896875 9.906875 3.79375 8.81375 3.6875 7.6875 C3.01473882 4.07905368 2.75891833 3.15915348 0 1 C0 0.67 0 0.34 0 0 Z " fill="#EDEEED" transform="translate(715,865)"/>
<path d="M0 0 C0.66 0 1.32 0 2 0 C2.33 2.64 2.66 5.28 3 8 C2.34 8 1.68 8 1 8 C-0.6446674 10.46326712 -0.6446674 10.46326712 -2 13 C-3.45047396 10.09905209 -2.45356803 8.44027404 -1.5625 5.375 C-1.27503906 4.37210938 -0.98757813 3.36921875 -0.69140625 2.3359375 C-0.46324219 1.56507813 -0.23507812 0.79421875 0 0 Z " fill="#E8E9E8" transform="translate(275,825)"/>
<path d="M0 0 C0.65234375 1.765625 0.65234375 1.765625 1 4 C0.00390625 5.921875 0.00390625 5.921875 -1.4375 7.75 C-1.91058594 8.36359375 -2.38367188 8.9771875 -2.87109375 9.609375 C-3.24363281 10.06828125 -3.61617188 10.5271875 -4 11 C-4.66 10.67 -5.32 10.34 -6 10 C-5.49477778 5.62140745 -2.82172778 3.18348776 0 0 Z " fill="#14AAA5" transform="translate(313,217)"/>
<path d="M0 0 C3.48670834 1.1094072 6.77484237 2.26337666 10 4 C9.67 4.66 9.34 5.32 9 6 C8.21625 5.690625 7.4325 5.38125 6.625 5.0625 C2.10148422 3.73664193 -2.31431814 3.35188915 -7 3 C-7 2.67 -7 2.34 -7 2 C-4.69 2 -2.38 2 0 2 C0 1.34 0 0.68 0 0 Z " fill="#DDDEDE" transform="translate(536,683)"/>
<path d="M0 0 C1.84790538 3.31016094 2.74541487 6.57173491 3.625 10.25 C3.88539063 11.32765625 4.14578125 12.4053125 4.4140625 13.515625 C4.60742188 14.33546875 4.80078125 15.1553125 5 16 C1.7221108 13.12934347 0.42455402 11.16914084 -0.3125 6.875 C-0.47363281 6.00617187 -0.63476562 5.13734375 -0.80078125 4.2421875 C-1 2 -1 2 0 0 Z " fill="#EAEAEA" transform="translate(203,791)"/>
<path d="M0 0 C2.0625 0.4375 2.0625 0.4375 4 1 C2.73742767 2.17560179 1.46462916 3.34022865 0.1875 4.5 C-0.87404297 5.47453125 -0.87404297 5.47453125 -1.95703125 6.46875 C-4 8 -4 8 -7 8 C-6.02133662 6.85373678 -5.04205413 5.70800212 -4.0625 4.5625 C-3.51722656 3.92441406 -2.97195313 3.28632812 -2.41015625 2.62890625 C-1.63204305 1.73008851 -0.84063472 0.84063472 0 0 Z M-9 8 C-7 9 -7 9 -7 9 Z " fill="#EFEFEF" transform="translate(683,556)"/>
<path d="M0 0 C0.66 0 1.32 0 2 0 C2.53122363 1.76774419 3.04964073 3.53934083 3.5625 5.3125 C3.85253906 6.29863281 4.14257812 7.28476562 4.44140625 8.30078125 C5 11 5 11 4 14 C2.23537317 10.91190305 2 9.76687864 2 6 C1.34 6 0.68 6 0 6 C0 4.02 0 2.04 0 0 Z " fill="#ECECEC" transform="translate(226,876)"/>
<path d="M0 0 C1.41805831 0.28482368 2.83440379 0.57818144 4.25 0.875 C5.03890625 1.03742187 5.8278125 1.19984375 6.640625 1.3671875 C8.96831144 1.99150075 10.89031952 2.84838542 13 4 C8.49537986 5.36503641 5.35665479 4.67563646 1 3 C0.67 2.01 0.34 1.02 0 0 Z " fill="#EFF0EF" transform="translate(699,860)"/>
<path d="M0 0 C0.66 0.33 1.32 0.66 2 1 C1.67 3.31 1.34 5.62 1 8 C0.34 8 -0.32 8 -1 8 C-0.67 9.32 -0.34 10.64 0 12 C-0.99 12.33 -1.98 12.66 -3 13 C-2.68991116 11.39536551 -2.37683713 9.79130769 -2.0625 8.1875 C-1.88847656 7.29417969 -1.71445312 6.40085937 -1.53515625 5.48046875 C-1 3 -1 3 0 0 Z " fill="#E9E9E9" transform="translate(269,847)"/>
<path d="M0 0 C2.08379509 3.84700632 3.49686624 7.90054429 5 12 C3.68 11.67 2.36 11.34 1 11 C0.63743142 9.5437328 0.28520207 8.08488815 -0.0625 6.625 C-0.35833984 5.40683594 -0.35833984 5.40683594 -0.66015625 4.1640625 C-1 2 -1 2 0 0 Z " fill="#ECECEC" transform="translate(631,735)"/>
<path d="M0 0 C0.66 1.32 1.32 2.64 2 4 C1.01 4.495 1.01 4.495 0 5 C0.0825 6.0725 0.165 7.145 0.25 8.25 C0 12 0 12 -4 16 C-2.68 10.72 -1.36 5.44 0 0 Z " fill="#E7E8E9" transform="translate(264,864)"/>
<path d="M0 0 C2.63180464 3.94770696 1.8008948 6.73980149 1.125 11.1875 C0.96837891 12.31188477 0.96837891 12.31188477 0.80859375 13.45898438 C0.5495672 15.30749204 0.27616034 17.15397432 0 19 C-0.33 19 -0.66 19 -1 19 C-1.02697137 16.39576408 -1.04682489 13.79180756 -1.0625 11.1875 C-1.07087891 10.44951172 -1.07925781 9.71152344 -1.08789062 8.95117188 C-1.10259828 5.70077932 -1.03531702 3.10595105 0 0 Z " fill="#E7E7E6" transform="translate(540,712)"/>
<path d="M0 0 C0.66 0 1.32 0 2 0 C1.34 3.63 0.68 7.26 0 11 C-0.66 11 -1.32 11 -2 11 C-2.33 8.69 -2.66 6.38 -3 4 C-2.01 4 -1.02 4 0 4 C0 2.68 0 1.36 0 0 Z " fill="#E4E5E4" transform="translate(308,854)"/>
<path d="M0 0 C2.97 0 5.94 0 9 0 C9.33 0.99 9.66 1.98 10 3 C7.03 3 4.06 3 1 3 C0.67 2.01 0.34 1.02 0 0 Z " fill="#EAEAE9" transform="translate(631,833)"/>
<path d="M0 0 C0.33 0.66 0.66 1.32 1 2 C0.34 1.67 -0.32 1.34 -1 1 C-0.67 0.67 -0.34 0.34 0 0 Z M-3 2 C-2.34 2.33 -1.68 2.66 -1 3 C-1.99 4.485 -1.99 4.485 -3 6 C-3.99 5.67 -4.98 5.34 -6 5 C-5.01 4.01 -4.02 3.02 -3 2 Z M-8 6 C-7.01 6.33 -6.02 6.66 -5 7 C-5.66 7.66 -6.32 8.32 -7 9 C-7.99 8.67 -8.98 8.34 -10 8 C-9.34 7.34 -8.68 6.68 -8 6 Z M-12 9 C-10 10 -10 10 -10 10 Z " fill="#EDEEEE" transform="translate(672,566)"/>
<path d="M0 0 C0.99 0 1.98 0 3 0 C2.67 4.29 2.34 8.58 2 13 C1.67 13 1.34 13 1 13 C-0.10228696 8.59085217 -0.07654536 4.51617599 0 0 Z " fill="#EDC33F" transform="translate(612,396)"/>
<path d="M0 0 C4.59306496 1.4859916 7.43569245 3.85014682 11 7 C10.01 7.33 9.02 7.66 8 8 C7.67 7.01 7.34 6.02 7 5 C3.48809191 3.77030122 3.48809191 3.77030122 0 3 C0 2.01 0 1.02 0 0 Z " fill="#ECECEC" transform="translate(783,833)"/>
<path d="M0 0 C0.66 0 1.32 0 2 0 C4.42857143 7.42857143 4.42857143 7.42857143 3 11 C2.67 9.35 2.34 7.7 2 6 C1.34 6 0.68 6 0 6 C0 4.02 0 2.04 0 0 Z " fill="#EFEFEE" transform="translate(213,830)"/>
<path d="M0 0 C1.43836751 0.11458693 2.87570966 0.24209116 4.3125 0.375 C5.51326172 0.47941406 5.51326172 0.47941406 6.73828125 0.5859375 C9 1 9 1 12 3 C11.34 3.66 10.68 4.32 10 5 C6.08788267 3.84414715 3.1254959 2.64465038 0 0 Z " fill="#ECEDEC" transform="translate(556,813)"/>
<path d="M0 0 C0.99 0.33 1.98 0.66 3 1 C0.25604436 3.94721162 -2.38337216 6.19168608 -6 8 C-6.66 7.67 -7.32 7.34 -8 7 C-6.74057614 5.80040625 -5.46704714 4.61560557 -4.1875 3.4375 C-3.12595703 2.44556641 -3.12595703 2.44556641 -2.04296875 1.43359375 C-1.36878906 0.96050781 -0.69460938 0.48742187 0 0 Z " fill="#F2DB46" transform="translate(388,502)"/>
<path d="M0 0 C0.17942163 3.94727588 0.09350689 6.5980513 -2 10 C-2.66 10 -3.32 10 -4 10 C-3.88637738 8.5199159 -3.75877092 7.04089926 -3.625 5.5625 C-3.55539062 4.73878906 -3.48578125 3.91507813 -3.4140625 3.06640625 C-3.27742187 2.38449219 -3.14078125 1.70257812 -3 1 C-1 0 -1 0 0 0 Z " fill="#EFEFEF" transform="translate(813,868)"/>
<path d="M0 0 C0.66 0.33 1.32 0.66 2 1 C0.515 4.96 0.515 4.96 -1 9 C-1.66 9 -2.32 9 -3 9 C-2.4140625 2.84765625 -2.4140625 2.84765625 -2 1 C-1.34 0.67 -0.68 0.34 0 0 Z " fill="#EEEEEE" transform="translate(399,365)"/>
<path d="M0 0 C1 2 1 2 0.25 5.375 C-0.84831132 8.56010283 -1.80720779 10.50819067 -4 13 C-3.55966813 7.80408388 -3.11696661 4.33664919 0 0 Z " fill="#110F21" transform="translate(467,328)"/>
<path d="M0 0 C1.485 0.99 1.485 0.99 3 2 C2.34 2 1.68 2 1 2 C1 6.95 1 11.9 1 17 C0.67 17 0.34 17 0 17 C-0.19386492 14.35448944 -0.38038267 11.70882217 -0.5625 9.0625 C-0.61857422 8.30775391 -0.67464844 7.55300781 -0.73242188 6.77539062 C-0.86176157 4.85254042 -0.93516912 2.92610452 -1 1 C-0.67 0.67 -0.34 0.34 0 0 Z " fill="#E5E5E3" transform="translate(584,669)"/>
<path d="M0 0 C2.05078125 0.03255208 4.1015625 0.06510417 6.15234375 0.09765625 C6.15234375 1.08765625 6.15234375 2.07765625 6.15234375 3.09765625 C2.77734375 3.22265625 2.77734375 3.22265625 -0.84765625 3.09765625 C-1.50765625 2.43765625 -2.16765625 1.77765625 -2.84765625 1.09765625 C-1.84765625 0.09765625 -1.84765625 0.09765625 0 0 Z " fill="#24B2B0" transform="translate(525.84765625,121.90234375)"/>
<path d="M0 0 C2.12046792 3.53411321 2.53199289 6.94393835 3 11 C2.34 10.67 1.68 10.34 1 10 C1 8.68 1 7.36 1 6 C0.34 6 -0.32 6 -1 6 C-0.67 4.02 -0.34 2.04 0 0 Z " fill="#E8E9E9" transform="translate(220,851)"/>
<path d="M0 0 C1.60080151 4.00200378 0.29279692 7.04556236 -1 11 C-1.33 11 -1.66 11 -2 11 C-2 7.7 -2 4.4 -2 1 C-1.34 0.67 -0.68 0.34 0 0 Z " fill="#EAEBEB" transform="translate(248,850)"/>
<path d="M0 0 C0.99 0.495 0.99 0.495 2 1 C2 1.66 2 2.32 2 3 C2.66 3 3.32 3 4 3 C4.625 4.8125 4.625 4.8125 5 7 C4.01 8.485 4.01 8.485 3 10 C0 3.375 0 3.375 0 0 Z " fill="#E4E5E4" transform="translate(472,702)"/>
<path d="M0 0 C0.99 0.33 1.98 0.66 3 1 C2.34 1 1.68 1 1 1 C1.33 2.32 1.66 3.64 2 5 C1.34 5 0.68 5 0 5 C0.33 6.32 0.66 7.64 1 9 C0.01 9 -0.98 9 -2 9 C-1.34 6.03 -0.68 3.06 0 0 Z " fill="#EBECEC" transform="translate(324,877)"/>
<path d="M0 0 C0.33 0.66 0.66 1.32 1 2 C0.34 1.67 -0.32 1.34 -1 1 C-0.67 0.67 -0.34 0.34 0 0 Z M-1 2 C-1.66 3.32 -2.32 4.64 -3 6 C-3.99 5.67 -4.98 5.34 -6 5 C-3.25 2 -3.25 2 -1 2 Z M-8 6 C-7.34 6.33 -6.68 6.66 -6 7 C-6.99 7 -7.98 7 -9 7 C-8.67 6.67 -8.34 6.34 -8 6 Z " fill="#ECEDED" transform="translate(457,574)"/>
<path d="M0 0 C0.66 0.33 1.32 0.66 2 1 C1.01 1.33 0.02 1.66 -1 2 C-1 2.66 -1 3.32 -1 4 C-3.31 4.33 -5.62 4.66 -8 5 C-5.45378681 2.99940392 -3.01962385 1.20784954 0 0 Z " fill="#181622" transform="translate(634,572)"/>
<path d="M0 0 C0.99 0 1.98 0 3 0 C3.33 2.31 3.66 4.62 4 7 C3.01 7 2.02 7 1 7 C0.67 4.69 0.34 2.38 0 0 Z " fill="#2D2725" transform="translate(570,390)"/>
<path d="M0 0 C0.125 3.375 0.125 3.375 0 7 C-0.66 7.66 -1.32 8.32 -2 9 C-3 8 -3 8 -3.0625 4.4375 C-3.041875 3.303125 -3.02125 2.16875 -3 1 C-1 0 -1 0 0 0 Z " fill="#E7F4F1" transform="translate(286,348)"/>
<path d="M0 0 C1.88391785 3.26545761 2.49287967 6.28111761 3 10 C0.9375 8.375 0.9375 8.375 -1 6 C-0.75 2.75 -0.75 2.75 0 0 Z " fill="#DCF0F0" transform="translate(734,314)"/>
<path d="M0 0 C0.66 0.66 1.32 1.32 2 2 C-1.71888239 1.49287967 -4.73454239 0.88391785 -8 -1 C-4.34765818 -2.21744727 -3.37046678 -1.64202228 0 0 Z " fill="#ECEDED" transform="translate(400,836)"/>
<path d="M0 0 C0.66 0.33 1.32 0.66 2 1 C1.67 3.64 1.34 6.28 1 9 C0.34 8.34 -0.32 7.68 -1 7 C-0.625 3.375 -0.625 3.375 0 0 Z " fill="#ECECEC" transform="translate(318,812)"/>
<path d="M0 0 C0.66 0.66 1.32 1.32 2 2 C1.96712417 4.72869407 1.43602229 7.2966618 1 10 C-0.80411967 7.24075815 -1.0127245 6.11027897 -0.625 2.75 C-0.41875 1.8425 -0.2125 0.935 0 0 Z " fill="#2B2725" transform="translate(444,416)"/>
<path d="M0 0 C0.99 0.33 1.98 0.66 3 1 C2.67 2.98 2.34 4.96 2 7 C1.01 7 0.02 7 -1 7 C-0.67 4.69 -0.34 2.38 0 0 Z " fill="#EAC643" transform="translate(461,415)"/>
</svg>
